<svg id="account" width="18" height="18" viewBox="0 0 18 18" fill="none" xmlns="http://www.w3.org/2000/svg">
<path d="M0.217529 16.0626C-0.0240568 16.4811 0.119383 17.0162 0.537912 17.2578C0.95644 17.4994 1.49157 17.356 1.73315 16.9374L0.217529 16.0626ZM16.0327 16.9374C16.2743 17.356 16.8095 17.4994 17.228 17.2578C17.6465 17.0162 17.7899 16.4811 17.5484 16.0626L16.0327 16.9374ZM13.2253 6.71739C13.2253 9.11562 11.2812 11.0598 8.88295 11.0598V12.8098C12.2477 12.8098 14.9753 10.0821 14.9753 6.71739H13.2253ZM8.88295 11.0598C6.48471 11.0598 4.54056 9.11562 4.54056 6.71739H2.79056C2.79056 10.0821 5.51821 12.8098 8.88295 12.8098V11.0598ZM4.54056 6.71739C4.54056 4.31915 6.48471 2.375 8.88295 2.375V0.625C5.51821 0.625 2.79056 3.35265 2.79056 6.71739H4.54056ZM8.88295 2.375C11.2812 2.375 13.2253 4.31915 13.2253 6.71739H14.9753C14.9753 3.35265 12.2477 0.625 8.88295 0.625V2.375ZM1.73315 16.9374C2.45767 15.6823 3.49984 14.64 4.7549 13.9153L3.87983 12.3998C2.35872 13.2781 1.09563 14.5413 0.217529 16.0626L1.73315 16.9374ZM4.7549 13.9153C6.00974 13.1907 7.43342 12.8098 8.88295 12.8098V11.0598C7.12673 11.0598 5.40117 11.5213 3.87983 12.3998L4.7549 13.9153ZM8.88295 12.8098C10.3325 12.8098 11.7562 13.1907 13.011 13.9153L13.8861 12.3998C12.3647 11.5213 10.6392 11.0598 8.88295 11.0598V12.8098ZM13.011 13.9153C14.2661 14.64 15.3082 15.6823 16.0327 16.9374L17.5484 16.0626C16.6703 14.5413 15.4072 13.2781 13.8861 12.3998L13.011 13.9153Z" fill="#1D1D1B"/>
</svg>
