<svg id="bag" width="20" height="18" viewBox="0 0 20 18" fill="none" xmlns="http://www.w3.org/2000/svg">
<path d="M6.94953 4.61957C6.94953 3.7259 7.30453 2.86884 7.93645 2.23692C8.56836 1.60501 9.42543 1.25 10.3191 1.25C11.2128 1.25 12.0698 1.60501 12.7017 2.23692C13.3336 2.86884 13.6887 3.7259 13.6887 4.61957M17.1256 16.75H3.51257C3.34675 16.7492 3.18688 16.6881 3.06285 16.578C2.93883 16.4679 2.85913 16.3165 2.83866 16.1519L1.64246 5.36929C1.63182 5.27535 1.64107 5.18021 1.66961 5.09007C1.69815 4.99993 1.74533 4.9168 1.8081 4.84609C1.87086 4.77538 1.9478 4.71867 2.03392 4.67964C2.12004 4.64062 2.21341 4.62015 2.30795 4.61957H18.3302C18.4248 4.62015 18.5181 4.64062 18.6043 4.67964C18.6904 4.71867 18.7673 4.77538 18.8301 4.84609C18.8929 4.9168 18.94 4.99993 18.9686 5.09007C18.9971 5.18021 19.0064 5.27535 18.9957 5.36929L17.7995 16.1519C17.7791 16.3165 17.6994 16.4679 17.5753 16.578C17.4513 16.6881 17.2914 16.7492 17.1256 16.75Z" stroke="#1D1D1B" stroke-width="1.75" stroke-linecap="round" stroke-linejoin="round"/>
</svg>
