<svg id="gift" width="41" height="38" viewBox="0 0 41 38" fill="none" xmlns="http://www.w3.org/2000/svg">
<path d="M36.4697 21.0303V35.403C36.4697 35.8266 36.3014 36.2328 36.0019 36.5323C35.7024 36.8318 35.2962 37 34.8727 37H6.12729C5.70375 37 5.29755 36.8318 4.99806 36.5323C4.69857 36.2328 4.53032 35.8266 4.53032 35.403V21.0303M20.5 11.4485V37M20.5 11.4485C20.5 11.4485 27.2671 11.4485 29.5428 9.19277C30.4429 8.29274 30.9485 7.07204 30.9485 5.79921C30.9485 4.52638 30.4429 3.30568 29.5428 2.40566C28.6428 1.50563 27.4221 1 26.1493 1C24.8764 1 23.6557 1.50563 22.7557 2.40566C20.5 4.68134 20.5 11.4485 20.5 11.4485ZM20.5 11.4485C20.5 11.4485 13.7332 11.4485 11.4575 9.19277C10.5575 8.29274 10.0519 7.07204 10.0519 5.79921C10.0519 4.52638 10.5575 3.30568 11.4575 2.40566C12.3576 1.50563 13.5783 1 14.8511 1C16.1239 1 17.3446 1.50563 18.2446 2.40566C20.5004 4.68134 20.5 11.4485 20.5 11.4485ZM2.93336 11.4485H38.0666C38.9486 11.4485 39.6636 12.1635 39.6636 13.0455V19.4334C39.6636 20.3153 38.9486 21.0303 38.0666 21.0303H2.93336C2.05137 21.0303 1.33639 20.3153 1.33639 19.4334V13.0455C1.33639 12.1635 2.05137 11.4485 2.93336 11.4485Z" stroke="#1D1D1B" stroke-linecap="round" stroke-linejoin="round"/>
</svg>
