<svg id="heart" width="21" height="18" viewBox="0 0 21 18" fill="none" xmlns="http://www.w3.org/2000/svg">
<path d="M11.2347 16.2981L18.2069 9.32589C19.9199 7.60434 20.1695 4.78962 18.5512 2.9906C18.1454 2.53724 17.6514 2.17139 17.0994 1.9154C16.5474 1.6594 15.949 1.51865 15.3407 1.50173C14.7325 1.48481 14.1272 1.59209 13.5618 1.817C12.9964 2.04191 12.4828 2.37974 12.0524 2.80984L10.744 4.12682L9.61642 2.9906C7.89487 1.27766 5.08014 1.02804 3.28113 2.64629C2.82777 3.05213 2.46191 3.54615 2.20592 4.09816C1.94993 4.65016 1.80918 5.24857 1.79226 5.85681C1.77534 6.46505 1.88261 7.07036 2.10753 7.63574C2.33244 8.20112 2.67027 8.71471 3.10037 9.14513L10.2534 16.2981C10.3839 16.4275 10.5603 16.5 10.744 16.5C10.9278 16.5 11.1041 16.4275 11.2347 16.2981Z" stroke="#1D1D1B" stroke-width="2" stroke-linecap="round" stroke-linejoin="round"/>
</svg>
