<svg id="people" width="47" height="30" viewBox="0 0 47 30" fill="none" xmlns="http://www.w3.org/2000/svg">
<path d="M28.7403 0.65039C28.4737 0.722673 28.3163 0.997322 28.3886 1.26384C28.4609 1.53035 28.7355 1.68781 29.002 1.61552L28.7403 0.65039ZM31.7131 0.75L31.7131 0.249998L31.7116 0.250002L31.7131 0.75ZM42.194 11.2309L42.694 11.2309L42.194 11.2309ZM31.7131 21.7118L31.7128 21.2118C31.4367 21.212 31.213 21.4359 31.2131 21.712C31.2132 21.988 31.437 22.2118 31.7131 22.2118L31.7131 21.7118ZM0.365476 28.9624C0.206705 29.1884 0.261152 29.5002 0.487087 29.659C0.713022 29.8178 1.02489 29.7633 1.18366 29.5374L0.365476 28.9624ZM29.3895 29.5374C29.5483 29.7633 29.8602 29.8178 30.0861 29.659C30.312 29.5002 30.3665 29.1884 30.2077 28.9624L29.3895 29.5374ZM45.8162 29.5373C45.9748 29.7633 46.2866 29.8179 46.5127 29.6592C46.7387 29.5006 46.7933 29.1888 46.6347 28.9627L45.8162 29.5373ZM25.2675 11.2309C25.2675 16.7432 20.7989 21.2118 15.2866 21.2118V22.2118C21.3512 22.2118 26.2675 17.2955 26.2675 11.2309H25.2675ZM15.2866 21.2118C9.77429 21.2118 5.30568 16.7432 5.30568 11.2309H4.30568C4.30568 17.2955 9.222 22.2118 15.2866 22.2118V21.2118ZM5.30568 11.2309C5.30568 5.7186 9.77429 1.25 15.2866 1.25V0.25C9.222 0.25 4.30568 5.16632 4.30568 11.2309H5.30568ZM15.2866 1.25C20.7989 1.25 25.2675 5.7186 25.2675 11.2309H26.2675C26.2675 5.16632 21.3512 0.25 15.2866 0.25V1.25ZM29.002 1.61552C29.8864 1.37568 30.7983 1.25279 31.7146 1.25L31.7116 0.250002C30.7079 0.253058 29.7089 0.387667 28.7403 0.65039L29.002 1.61552ZM31.7131 1.25C34.3602 1.25 36.8989 2.30156 38.7706 4.17334L39.4777 3.46623C37.4184 1.40691 34.6254 0.25 31.7131 0.25V1.25ZM38.7706 4.17334C40.6424 6.04512 41.694 8.5838 41.694 11.2309L42.694 11.2309C42.694 8.31859 41.5371 5.52555 39.4777 3.46623L38.7706 4.17334ZM41.694 11.2309C41.694 13.878 40.6424 16.4167 38.7706 18.2885L39.4777 18.9956C41.5371 16.9363 42.694 14.1432 42.694 11.2309L41.694 11.2309ZM38.7706 18.2885C36.8989 20.1603 34.3602 21.2118 31.7131 21.2118V22.2118C34.6254 22.2118 37.4184 21.0549 39.4777 18.9956L38.7706 18.2885ZM1.18366 29.5374C2.77405 27.2742 4.88575 25.4271 7.34038 24.1519L6.87939 23.2645C4.28234 24.6136 2.04814 26.568 0.365476 28.9624L1.18366 29.5374ZM7.34038 24.1519C9.79494 22.8768 12.5204 22.2118 15.2866 22.2118L15.2866 21.2118C12.3601 21.2118 9.47651 21.9153 6.87939 23.2645L7.34038 24.1519ZM15.2866 22.2118C18.0528 22.2118 20.7782 22.8768 23.2328 24.1519L23.6938 23.2645C21.0967 21.9153 18.2131 21.2118 15.2866 21.2118L15.2866 22.2118ZM23.2328 24.1519C25.6874 25.4271 27.7991 27.2742 29.3895 29.5374L30.2077 28.9624C28.525 26.568 26.2908 24.6136 23.6938 23.2645L23.2328 24.1519ZM31.7134 22.2118C34.4796 22.2101 37.2059 22.875 39.6607 24.1501L40.1216 23.2627C37.5242 21.9135 34.6397 21.21 31.7128 21.2118L31.7134 22.2118ZM39.6607 24.1501C42.1155 25.4252 44.2269 27.2731 45.8162 29.5373L46.6347 28.9627C44.9531 26.5671 42.719 24.6119 40.1216 23.2627L39.6607 24.1501Z" fill="#1D1D1B"/>
</svg>
