<svg id="watch" width="26" height="38" viewBox="0 0 26 38" fill="none" xmlns="http://www.w3.org/2000/svg">
<path d="M13.5 12.0769C13.5 11.8008 13.2761 11.5769 13 11.5769C12.7239 11.5769 12.5 11.8008 12.5 12.0769H13.5ZM13 19H12.5C12.5 19.2761 12.7239 19.5 13 19.5V19ZM19.9231 19.5C20.1992 19.5 20.4231 19.2761 20.4231 19C20.4231 18.7238 20.1992 18.5 19.9231 18.5V19.5ZM5.58496 8.54347C5.53569 8.81518 5.71601 9.07539 5.98772 9.12466C6.25943 9.17393 6.51964 8.99361 6.56891 8.72189L5.58496 8.54347ZM7.25385 2.14231L7.74583 2.23152L7.74614 2.22981L7.25385 2.14231ZM8.62116 1.00001L8.61969 1.50001H8.62116V1.00001ZM17.3788 1.00001V1.50001L17.3803 1.5L17.3788 1.00001ZM18.7461 2.14231L18.2538 2.22981L18.2542 2.23152L18.7461 2.14231ZM19.4311 8.72189C19.4804 8.99361 19.7406 9.17393 20.0123 9.12466C20.284 9.07539 20.4643 8.81518 20.415 8.54347L19.4311 8.72189ZM6.56891 29.2781C6.51964 29.0064 6.25943 28.8261 5.98772 28.8753C5.71601 28.9246 5.53569 29.1848 5.58496 29.4565L6.56891 29.2781ZM7.25385 35.8577L7.74614 35.7702L7.74583 35.7685L7.25385 35.8577ZM8.62116 37V36.5L8.61969 36.5L8.62116 37ZM17.3788 37L17.3803 36.5H17.3788V37ZM18.7461 35.8577L18.2542 35.7685L18.2539 35.7702L18.7461 35.8577ZM20.415 29.4565C20.4643 29.1848 20.284 28.9246 20.0123 28.8753C19.7406 28.8261 19.4804 29.0064 19.4311 29.2781L20.415 29.4565ZM24.9615 19C24.9615 25.6061 19.6062 30.9615 13 30.9615V31.9615C20.1584 31.9615 25.9615 26.1584 25.9615 19H24.9615ZM13 30.9615C6.39383 30.9615 1.03848 25.6061 1.03848 19H0.0384827C0.0384827 26.1584 5.84155 31.9615 13 31.9615V30.9615ZM1.03848 19C1.03848 12.3938 6.39383 7.03845 13 7.03845V6.03845C5.84155 6.03845 0.0384827 11.8415 0.0384827 19H1.03848ZM13 7.03845C19.6062 7.03845 24.9615 12.3938 24.9615 19H25.9615C25.9615 11.8415 20.1584 6.03845 13 6.03845V7.03845ZM12.5 12.0769V19H13.5V12.0769H12.5ZM13 19.5H19.9231V18.5H13V19.5ZM6.56891 8.72189L7.74583 2.23152L6.76188 2.0531L5.58496 8.54347L6.56891 8.72189ZM7.74614 2.22981C7.78257 2.02481 7.89015 1.83923 8.04994 1.70574L7.4088 0.938315C7.06838 1.22271 6.83919 1.61807 6.76157 2.05481L7.74614 2.22981ZM8.04994 1.70574C8.20973 1.57225 8.41148 1.49939 8.61969 1.5L8.62262 0.500008C8.17904 0.498708 7.74922 0.653916 7.4088 0.938315L8.04994 1.70574ZM8.62116 1.50001H17.3788V0.500006H8.62116V1.50001ZM17.3803 1.5C17.5885 1.49939 17.7903 1.57225 17.95 1.70574L18.5912 0.938315C18.2508 0.653917 17.8209 0.498708 17.3774 0.500008L17.3803 1.5ZM17.95 1.70574C18.1098 1.83923 18.2174 2.02481 18.2539 2.22981L19.2384 2.05481C19.1608 1.61807 18.9316 1.22271 18.5912 0.938315L17.95 1.70574ZM18.2542 2.23152L19.4311 8.72189L20.415 8.54347L19.2381 2.0531L18.2542 2.23152ZM5.58496 29.4565L6.76188 35.9469L7.74583 35.7685L6.56891 29.2781L5.58496 29.4565ZM6.76157 35.9452C6.83919 36.3819 7.06838 36.7773 7.4088 37.0617L8.04994 36.2943C7.89015 36.1608 7.78257 35.9752 7.74614 35.7702L6.76157 35.9452ZM7.4088 37.0617C7.74922 37.3461 8.17904 37.5013 8.62262 37.5L8.61969 36.5C8.41148 36.5006 8.20973 36.4278 8.04994 36.2943L7.4088 37.0617ZM8.62116 37.5H17.3788V36.5H8.62116V37.5ZM17.3774 37.5C17.8209 37.5013 18.2508 37.3461 18.5912 37.0617L17.95 36.2943C17.7903 36.4278 17.5885 36.5006 17.3803 36.5L17.3774 37.5ZM18.5912 37.0617C18.9316 36.7773 19.1608 36.3819 19.2384 35.9452L18.2539 35.7702C18.2174 35.9752 18.1098 36.1608 17.95 36.2943L18.5912 37.0617ZM19.2381 35.9469L20.415 29.4565L19.4311 29.2781L18.2542 35.7685L19.2381 35.9469Z" fill="#1D1D1B"/>
</svg>
